<svg height="512pt" viewBox="-85 0 512 512" width="512pt" xmlns="http://www.w3.org/2000/svg"><path d="m246.84375 156.808594c0-41.800782-34.007812-75.808594-75.808594-75.808594-41.796875 0-75.804687 34.007812-75.804687 75.808594 0 41.796875 34.003906 75.804687 75.804687 75.804687 41.800782 0 75.808594-34.007812 75.808594-75.804687zm0 0"/><path d="m171.035156 422c11.746094-15.300781 80.613282-109.945312 103.796875-141.566406 27.574219-37.605469 53.011719-75.335938 53.011719-123.625 0-86.601563-70.207031-156.80468775-156.808594-156.80468775l-.019531-.00390625c-86.605469 0-156.785156 70.203125-156.785156 156.804688 0 48.289062 25.433593 86.023437 53.007812 123.628906 23.1875 31.621094 103.796875 141.566406 103.796875 141.566406zm-105.804687-265.191406c0-58.34375 47.464843-105.808594 105.804687-105.808594 58.34375 0 105.808594 47.464844 105.808594 105.808594 0 58.339844-47.464844 105.804687-105.808594 105.804687-58.339844 0-105.804687-47.464843-105.804687-105.804687zm0 0"/><path d="m228.621094 394.203125c-3.105469 4.242187-58.136719 77.78125-58.136719 77.78125l-57.027344-77.78125h-69.042969l-44.414062 117.796875h342.070312l-44.417968-117.796875zm0 0"/></svg>